<svg width="20" height="20" viewBox="0 0 20 20" fill="none" xmlns="http://www.w3.org/2000/svg">
<path fill-rule="evenodd" clip-rule="evenodd" d="M13.6638 13.665C15.6526 11.6761 17.3063 9.47902 18.6247 7.14381C19.6333 5.35728 19.1733 3.15061 17.7226 1.69991L17.2246 1.20199C16.733 0.710339 15.9359 0.710339 15.4442 1.20199L12.7736 3.87264C12.2819 4.36429 12.2819 5.16141 12.7736 5.65307L13.4803 6.35983C13.907 6.78649 13.9736 7.45786 13.616 7.94386C12.8318 9.00968 11.9575 10.03 10.9931 10.9944C10.0288 11.9587 9.00846 12.833 7.94263 13.6172C7.45663 13.9748 6.78526 13.9082 6.35861 13.4816L5.65184 12.7748C5.16019 12.2831 4.36307 12.2831 3.87141 12.7748L1.20077 15.4454C0.709118 15.9371 0.709118 16.7342 1.20077 17.2259L1.69869 17.7238C3.14939 19.1745 5.35605 19.6345 7.14259 18.6259C9.47779 17.3075 11.6749 15.6538 13.6638 13.665Z" fill="#1D8DE1"/>
</svg>
