<svg width="20" height="20" viewBox="0 0 20 20" fill="none" xmlns="http://www.w3.org/2000/svg">
<path fill-rule="evenodd" clip-rule="evenodd" d="M18.3328 0.866699C18.7746 0.866699 19.1328 1.22487 19.1328 1.6667C19.1328 2.10853 18.7746 2.4667 18.3328 2.4667H16.4692L14.1123 12.6799C14.0141 13.1057 13.5924 13.3738 13.1652 13.2823L1.49852 10.7823C1.12946 10.7032 0.865877 10.3769 0.866146 9.99946L0.869713 4.99946C0.870028 4.55786 1.22811 4.20003 1.66971 4.20003H14.4272L15.0533 1.48681C15.1371 1.12383 15.4603 0.866699 15.8328 0.866699H18.3328ZM12.7304 11.5528L14.0579 5.80003H2.46914L2.46661 9.3534L12.7304 11.5528ZM14.5829 16.6334C14.8313 16.6334 15.0328 16.8348 15.0328 17.0834C15.0328 17.3319 14.8313 17.5334 14.5829 17.5334C14.3343 17.5334 14.1328 17.3318 14.1328 17.0834C14.1328 16.8349 14.3343 16.6334 14.5829 16.6334ZM16.6328 17.0834C16.6328 15.9512 15.715 15.0334 14.5829 15.0334C13.4507 15.0334 12.5328 15.9512 12.5328 17.0834C12.5328 18.2156 13.4507 19.1334 14.5829 19.1334C15.715 19.1334 16.6328 18.2155 16.6328 17.0834ZM3.74954 16.6334C3.99795 16.6334 4.19948 16.8348 4.19948 17.0834C4.19948 17.3319 3.99795 17.5334 3.74954 17.5334C3.50097 17.5334 3.29948 17.3318 3.29948 17.0834C3.29948 16.8349 3.50097 16.6334 3.74954 16.6334ZM5.79948 17.0834C5.79948 15.9512 4.88163 15.0334 3.74954 15.0334C2.61738 15.0334 1.69948 15.9512 1.69948 17.0834C1.69948 18.2156 2.61738 19.1334 3.74954 19.1334C4.88163 19.1334 5.79948 18.2155 5.79948 17.0834Z" fill="#111114"/>
</svg>
