<svg width="20" height="20" viewBox="0 0 20 20" fill="none" xmlns="http://www.w3.org/2000/svg">
<path d="M13.4588 1.66948C14.1092 1.64702 14.7573 1.75732 15.3636 1.99365C15.9699 2.22997 16.5217 2.58737 16.9854 3.04402C17.4323 3.50762 17.7817 4.0561 18.013 4.65706C18.2444 5.25801 18.3529 5.89924 18.3321 6.54285V13.4572C18.3321 14.9012 17.8601 16.1438 16.9576 17.0185C16.0002 17.9024 14.7333 18.3738 13.431 18.3306H6.57226C5.28086 18.3706 4.02591 17.899 3.08039 17.0185C2.6117 16.5491 2.24469 15.9881 2.00224 15.3706C1.75979 14.7532 1.64708 14.0924 1.67115 13.4294V6.54285C1.67115 3.61327 3.61493 1.66948 6.54449 1.66948H13.4588ZM13.4935 3.21757H6.57226C5.56566 3.21757 4.6979 3.51608 4.1217 4.08534C3.81382 4.41327 3.57521 4.79992 3.42015 5.22217C3.26509 5.64441 3.19676 6.09359 3.21923 6.54285V13.4294C3.21923 14.4708 3.51774 15.3038 4.1217 15.9147C4.79531 16.5105 5.67384 16.8216 6.57226 16.7825H13.431C14.3295 16.8216 15.208 16.5105 15.8816 15.9147C16.205 15.5948 16.4584 15.2111 16.6257 14.788C16.793 14.365 16.8706 13.9118 16.8535 13.4572V6.54285C16.8759 5.64916 16.5526 4.7813 15.951 4.12005C15.6231 3.81216 15.2364 3.57355 14.8142 3.41849C14.3919 3.26343 13.9428 3.19509 13.4935 3.21757ZM10.0016 5.66814C12.355 5.66814 14.3057 7.61193 14.3057 9.97226C14.3057 11.1138 13.8523 12.2085 13.0451 13.0157C12.2379 13.8229 11.1432 14.2764 10.0016 14.2764C8.86013 14.2764 7.76537 13.8229 6.95819 13.0157C6.15102 12.2085 5.69756 11.1138 5.69756 9.97226C5.69756 8.83073 6.15102 7.73596 6.95819 6.92879C7.76537 6.12161 8.86013 5.66814 10.0016 5.66814ZM10.0016 7.20929C9.27183 7.21294 8.57295 7.50448 8.05689 8.02054C7.54082 8.53661 7.24929 9.2355 7.24564 9.96531C7.24929 10.6951 7.54082 11.394 8.05689 11.9101C8.57295 12.4261 9.27183 12.7177 10.0016 12.7213C10.7315 12.7177 11.4303 12.4261 11.9464 11.9101C12.4625 11.394 12.754 10.6951 12.7576 9.96531C12.754 9.2355 12.4625 8.53661 11.9464 8.02054C11.4303 7.50448 10.7315 7.21294 10.0016 7.20929ZM14.4723 4.59211C14.7301 4.59211 14.9773 4.69451 15.1596 4.87677C15.3418 5.05904 15.4442 5.30625 15.4442 5.56401C15.4442 5.82177 15.3418 6.06898 15.1596 6.25124C14.9773 6.43351 14.7301 6.53591 14.4723 6.53591C14.2146 6.53591 13.9674 6.43351 13.7851 6.25124C13.6028 6.06898 13.5005 5.82177 13.5005 5.56401C13.5005 5.30625 13.6028 5.05904 13.7851 4.87677C13.9674 4.69451 14.2146 4.59211 14.4723 4.59211Z" fill="#1D8DE1"/>
</svg>
