<svg width="20" height="20" viewBox="0 0 20 20" fill="none" xmlns="http://www.w3.org/2000/svg">
<path d="M17.1055 1.66663H2.89714C2.22352 1.66663 1.66797 2.20135 1.66797 2.86107V17.1388C1.66797 17.7986 2.22352 18.3333 2.89714 18.3333H17.1055C17.786 18.3333 18.3346 17.7986 18.3346 17.1388V2.86107C18.3346 2.20135 17.7791 1.66663 17.1055 1.66663ZM6.71658 15.625H4.20269V8.08329H6.71658V15.625ZM5.46658 7.05552H5.44575C4.59852 7.05552 4.05686 6.47913 4.05686 5.7569C4.05686 5.02079 4.61241 4.45829 5.48047 4.45829C6.34158 4.45829 6.86936 5.01385 6.88325 5.7569C6.88325 6.47913 6.34158 7.05552 5.45964 7.05552H5.46658ZM15.793 15.625H13.2721V11.5972C13.2721 10.5902 12.911 9.89579 12.0013 9.89579C11.3069 9.89579 10.8902 10.3611 10.7027 10.8125C10.6332 10.9722 10.6263 11.1944 10.6263 11.4236V15.625H8.11241C8.11241 15.625 8.14714 8.80552 8.11241 8.09718H10.6332V9.16663C10.8608 8.77169 11.192 8.44648 11.591 8.22616C11.99 8.00585 12.4417 7.89881 12.8971 7.91663C14.5569 7.91663 15.7999 8.99996 15.7999 11.3125V15.625H15.793Z" fill="#1D8DE1"/>
</svg>
