<svg width="18" height="20" viewBox="0 0 18 20" fill="none" xmlns="http://www.w3.org/2000/svg">
<path fill-rule="evenodd" clip-rule="evenodd" d="M6.58516 0.866699C4.48648 0.866699 2.78516 2.56802 2.78516 4.6667V5.00003C2.78516 5.44186 3.14333 5.80003 3.58516 5.80003C4.02698 5.80003 4.38516 5.44186 4.38516 5.00003V4.6667C4.38516 3.45167 5.37013 2.4667 6.58516 2.4667H13.9185C15.1335 2.4667 16.1185 3.45167 16.1185 4.6667V15.3334C16.1185 16.5484 15.1335 17.5334 13.9185 17.5334H6.58515C5.37013 17.5334 4.38516 16.5484 4.38516 15.3334V15C4.38516 14.5582 4.02698 14.2 3.58516 14.2C3.14333 14.2 2.78516 14.5582 2.78516 15V15.3334C2.78516 17.432 4.48647 19.1334 6.58515 19.1334H13.9185C16.0172 19.1334 17.7185 17.432 17.7185 15.3334V4.6667C17.7185 2.56802 16.0172 0.866699 13.9185 0.866699H6.58516ZM8.01947 11.9343C7.70705 12.2468 7.70705 12.7533 8.01947 13.0657C8.33189 13.3781 8.83842 13.3781 9.15084 13.0657L11.6508 10.5657C11.8009 10.4157 11.8852 10.2122 11.8852 10C11.8852 9.78786 11.8009 9.58438 11.6508 9.43435L9.15084 6.93435C8.83842 6.62193 8.33189 6.62193 8.01947 6.93435C7.70705 7.24677 7.70705 7.7533 8.01947 8.06572L9.15379 9.20003L1.08516 9.20003C0.643329 9.20003 0.285156 9.5582 0.285156 10C0.285156 10.4419 0.643329 10.8 1.08516 10.8H9.15379L8.01947 11.9343Z" fill="#111114"/>
</svg>
