<svg width="20" height="20" viewBox="0 0 20 20" fill="none" xmlns="http://www.w3.org/2000/svg">
<path fill-rule="evenodd" clip-rule="evenodd" d="M2.46719 9.67627C2.46719 6.15473 5.32196 3.29995 8.84351 3.29995C12.365 3.29995 15.2198 6.15473 15.2198 9.67627C15.2198 13.1978 12.365 16.0526 8.84351 16.0526C5.32196 16.0526 2.46719 13.1978 2.46719 9.67627ZM8.84351 1.69995C4.43831 1.69995 0.867188 5.27107 0.867188 9.67627C0.867188 14.0815 4.43831 17.6526 8.84351 17.6526C11.0624 17.6526 13.0696 16.7466 14.5155 15.2843C14.5536 15.3639 14.6057 15.4386 14.6717 15.5046L17.5998 18.4327C17.9123 18.7452 18.4188 18.7452 18.7312 18.4327C19.0436 18.1203 19.0436 17.6138 18.7312 17.3014L15.803 14.3732C15.6984 14.2685 15.5719 14.1989 15.4383 14.1644C16.3101 12.8858 16.8198 11.3406 16.8198 9.67627C16.8198 5.27107 13.2487 1.69995 8.84351 1.69995Z" fill="#111114"/>
</svg>
