<svg width="20" height="20" viewBox="0 0 20 20" fill="none" xmlns="http://www.w3.org/2000/svg">
<path fill-rule="evenodd" clip-rule="evenodd" d="M9.6 19.2C14.9019 19.2 19.2 14.9019 19.2 9.6C19.2 4.29807 14.9019 0 9.6 0C4.29807 0 0 4.29807 0 9.6C0 14.9019 4.29807 19.2 9.6 19.2ZM13.5832 5.61788C13.7403 5.77498 13.7403 6.02968 13.5832 6.18677L10.1699 9.6001L13.5832 13.0134C13.7403 13.1705 13.7403 13.4252 13.5832 13.5823C13.4261 13.7394 13.1714 13.7394 13.0143 13.5823L9.60101 10.169L6.1877 13.5823C6.03061 13.7394 5.77591 13.7394 5.61882 13.5823C5.46172 13.4252 5.46172 13.1705 5.61882 13.0134L9.03212 9.6001L5.61882 6.18678C5.46173 6.02969 5.46173 5.77499 5.61882 5.6179C5.77592 5.4608 6.03062 5.4608 6.18771 5.6179L9.60101 9.03121L13.0143 5.61788C13.1714 5.46079 13.4261 5.46079 13.5832 5.61788Z" fill="#111114" fill-opacity="0.48"/>
</svg>
