<svg width="20" height="20" viewBox="0 0 20 20" fill="none" xmlns="http://www.w3.org/2000/svg">
<path fill-rule="evenodd" clip-rule="evenodd" d="M8.63599 9.54637C8.7689 9.46045 8.902 9.37442 9.03553 9.28838C9.11709 9.23238 9.19864 9.17617 9.2802 9.11996C9.6064 8.89514 9.93261 8.67031 10.2588 8.45876C10.4646 8.32017 10.669 8.17983 10.8733 8.03952C11.3724 7.69688 11.8711 7.3544 12.3888 7.03803C12.5712 6.92914 12.759 6.82025 12.9629 6.75803L12.9676 6.75651C13.0469 6.73093 13.136 6.70221 13.2043 6.76322C13.2713 6.82327 13.2488 6.89979 13.2279 6.97077C13.2253 6.97946 13.2228 6.98807 13.2204 6.99655C13.199 7.07951 13.1614 7.1521 13.097 7.21951C12.3262 8.02314 11.4863 8.75993 10.6445 9.49836C10.5195 9.60801 10.3944 9.71769 10.2695 9.82764L10.2374 9.84319C10.0749 9.9903 9.91348 10.1369 9.75248 10.2831C9.40843 10.5956 9.0662 10.9064 8.71898 11.2173C8.44535 11.461 8.22001 11.7358 8.10734 12.0884C8.0054 12.415 8.09125 12.8091 8.44535 13.0321C8.6971 13.1889 8.94271 13.3557 9.1885 13.5225C9.34082 13.6259 9.49321 13.7294 9.64718 13.8306C10.0907 14.1209 10.5349 14.4108 10.979 14.7006C11.8673 15.2801 12.7555 15.8597 13.6389 16.4439C14.4062 16.952 15.4792 16.5476 15.6616 15.6713C15.7024 15.49 15.7339 15.3058 15.7655 15.1208C15.7755 15.0624 15.7855 15.0039 15.7958 14.9454C15.9004 14.3543 16.0037 13.7645 16.107 13.1746C16.2102 12.5848 16.3135 11.995 16.4181 11.4039C16.4557 11.1966 16.4919 10.9905 16.5281 10.7844C16.5643 10.5783 16.6006 10.3721 16.6381 10.1647C16.6408 10.1465 16.6421 10.1271 16.6435 10.1076C16.6448 10.0882 16.6462 10.0687 16.6489 10.0506C16.6574 9.99977 16.6659 9.94902 16.6745 9.89833C16.7356 9.53532 16.7962 9.17533 16.8527 8.81135C16.9922 7.92469 17.1264 7.04322 17.2605 6.16174C17.3356 5.68471 17.4 5.20768 17.4429 4.73064C17.4644 4.51287 17.4805 4.28991 17.4966 4.06694C17.5127 3.84398 17.4375 3.6625 17.2712 3.51732C17.0673 3.34102 16.8098 3.32547 16.5523 3.33584C16.2357 3.35139 15.9245 3.4188 15.6241 3.52769C14.9534 3.77658 14.2881 4.02546 13.6228 4.27953C11.8523 4.96397 10.0871 5.6536 8.33268 6.36396C7.59764 6.65951 6.86796 6.95507 6.13829 7.25581C5.83427 7.38024 5.53025 7.50929 5.22623 7.63834C5.0742 7.70287 4.92217 7.7674 4.77014 7.83136C4.60843 7.90064 4.44672 7.96891 4.28517 8.03712C3.92681 8.18843 3.56924 8.33941 3.21421 8.50024C2.57038 8.78542 1.92655 9.08098 1.30418 9.41283C1.29861 9.41584 1.29304 9.41885 1.28746 9.42186C1.15854 9.49152 1.02632 9.56296 0.928606 9.67727C0.79984 9.82245 0.79984 9.95208 0.928606 10.0973C1.00909 10.1854 1.11103 10.258 1.21833 10.3099C2.27529 10.818 3.37517 11.2069 4.5448 11.378C5.12962 11.4661 5.68224 11.3573 6.1973 11.0513C6.38525 10.937 6.5757 10.8252 6.76635 10.7132C7.06006 10.5406 7.35426 10.3678 7.64056 10.1854C7.97381 9.97441 8.30431 9.76077 8.63599 9.54637Z" fill="#1D8DE1"/>
</svg>
