<svg width="20" height="20" viewBox="0 0 20 20" fill="none" xmlns="http://www.w3.org/2000/svg">
<path d="M18.3346 4.91337C17.712 5.187 17.0491 5.36688 16.3694 5.44671C17.0904 5.02004 17.6258 4.35682 17.8763 3.58004C17.2166 3.96671 16.4874 4.24671 15.7027 4.39337C15.386 4.05911 15 3.79213 14.5695 3.60958C14.1389 3.42703 13.6734 3.33295 13.2027 3.33338C12.6791 3.33851 12.1635 3.4575 11.6947 3.68138C11.2259 3.90527 10.816 4.22824 10.4959 4.62603C10.1758 5.02381 9.95371 5.48608 9.84639 5.97808C9.73908 6.47008 9.7493 6.97904 9.8763 7.46671C8.50822 7.395 7.17181 7.04393 5.95631 6.43692C4.74081 5.82992 3.6742 4.98095 2.82769 3.94671C2.38609 4.68836 2.25022 5.56202 2.44694 6.39516C2.64365 7.22829 3.15863 7.96033 3.89019 8.4467C3.3455 8.42765 2.8139 8.28118 2.34158 8.02004V8.06671C2.34158 9.69337 3.52214 11.0534 5.08464 11.3667C4.582 11.499 4.05421 11.5172 3.54297 11.42C3.98047 12.76 5.24436 13.7334 6.73741 13.76C6.0336 14.3081 5.22201 14.7146 4.35105 14.9551C3.48009 15.1956 2.56759 15.2653 1.66797 15.16C3.22386 16.1451 5.04722 16.6691 6.91102 16.6667C13.2027 16.6667 16.6332 11.5334 16.6332 7.08671V6.65337C17.2999 6.18004 17.8763 5.58671 18.3346 4.91337V4.91337Z" fill="#1D8DE1"/>
</svg>
