<svg width="20" height="20" viewBox="0 0 20 20" fill="none" xmlns="http://www.w3.org/2000/svg">
<path d="M1.66797 18.3333L2.84509 14.0534C2.11872 12.8007 1.73705 11.3805 1.73774 9.92427C1.73984 5.37149 5.46238 1.66663 10.0362 1.66663C12.2558 1.66732 14.3393 2.52774 15.9064 4.08885C17.4729 5.64996 18.3353 7.72496 18.3346 9.9319C18.3325 14.4854 14.61 18.1902 10.0362 18.1902C8.64765 18.1895 7.27934 17.843 6.06734 17.1847L1.66797 18.3333V18.3333ZM6.27108 15.6895C7.44053 16.3805 8.55694 16.7944 10.0334 16.7951C13.8348 16.7951 16.9314 13.7159 16.9335 9.93051C16.9349 6.13746 13.8529 3.06246 10.039 3.06107C6.2348 3.06107 3.14024 6.14024 3.13884 9.92496C3.13815 11.4701 3.59309 12.627 4.35713 13.8375L3.66007 16.3708L6.27108 15.6895V15.6895ZM14.2165 11.8951C14.1648 11.809 14.0267 11.7576 13.8187 11.6541C13.6115 11.5507 12.5921 11.0513 12.4016 10.9826C12.2118 10.9138 12.0736 10.8791 11.9348 11.0861C11.7966 11.2923 11.3989 11.7576 11.2782 11.8951C11.1575 12.0326 11.0361 12.05 10.8288 11.9465C10.6216 11.843 9.95316 11.6257 9.1612 10.9222C8.54508 10.375 8.12852 9.69927 8.0078 9.49232C7.88709 9.28607 7.99525 9.17427 8.09851 9.07149C8.19201 8.97913 8.30575 8.83052 8.40971 8.70968C8.51508 8.59024 8.54927 8.50413 8.61904 8.36593C8.68812 8.22843 8.65393 8.1076 8.6016 8.00413C8.54927 7.90135 8.1348 6.88538 7.96245 6.47218C7.79359 6.0701 7.62264 6.12426 7.49565 6.11801L7.09793 6.11107C6.95977 6.11107 6.73509 6.16246 6.5453 6.3694C6.35551 6.57635 5.81963 7.07496 5.81963 8.09093C5.81963 9.1069 6.56275 10.0882 6.66601 10.2257C6.76998 10.3632 8.12782 12.4479 10.2078 13.3416C10.7025 13.5541 11.0891 13.6812 11.3898 13.7763C11.8866 13.9333 12.3388 13.9111 12.696 13.8583C13.0945 13.7993 13.9227 13.359 14.0958 12.877C14.2688 12.3944 14.2688 11.9812 14.2165 11.8951V11.8951Z" fill="#1D8DE1"/>
</svg>
