<svg width="20" height="20" viewBox="0 0 20 20" fill="none" xmlns="http://www.w3.org/2000/svg">
<path d="M10.0293 3.34121C10.4799 3.34121 15.789 3.35688 17.164 3.7329C17.5543 3.84323 17.9094 4.05695 18.1937 4.3526C18.4779 4.64824 18.6813 5.01541 18.7834 5.4172C19.1654 6.90564 19.1654 10 19.1654 10V10.0314C19.1654 10.3682 19.1424 13.1884 18.7834 14.575C18.6825 14.9783 18.4797 15.3471 18.1953 15.6442C17.911 15.9413 17.5552 16.1562 17.164 16.2672C15.8195 16.6432 10.7091 16.6589 10.0598 16.6667H9.92995C9.28064 16.6667 4.17023 16.6432 2.83342 16.275C2.44125 16.1633 2.08487 15.9473 1.80045 15.6487C1.51603 15.3501 1.31369 14.9797 1.21398 14.575C0.893142 13.3138 0.83967 10.8931 0.832031 10.1881V9.79636C0.83967 9.09131 0.893142 6.67062 1.21398 5.40936C1.31723 5.00902 1.52114 4.64348 1.80533 4.34928C2.08952 4.05509 2.44403 3.84255 2.83342 3.7329C4.20842 3.34904 9.51745 3.33337 9.96814 3.33337L10.0293 3.34121ZM8.11953 7.17983V12.8046L12.9168 10L8.11953 7.18766V7.17983Z" fill="#1D8DE1"/>
</svg>
